<?xml version="1.0"?>
<svg xmlns="http://www.w3.org/2000/svg" xmlns:xlink="http://www.w3.org/1999/xlink" xmlns:svgjs="http://svgjs.com/svgjs" version="1.1" width="512" height="512" x="0" y="0" viewBox="0 0 512 512" style="enable-background:new 0 0 512 512" xml:space="preserve" class=""><g><g xmlns="http://www.w3.org/2000/svg"><path d="m70.812 423.827c-.843 4.814.713 9.737 4.169 13.193 2.837 2.837 6.663 4.393 10.605 4.393.86 0 1.726-.074 2.588-.225l113.519-19.881-111.012-111.013z" fill="#000154" data-original="#000000" style="" class=""/><path d="m312.325 99.675c-5.857-5.858-15.355-5.858-21.213 0l-184.312 184.312 50 50 194.919-194.919z" fill="#000154" data-original="#000000" style="" class=""/><path d="m412.311 199.661-39.379-39.38-194.919 194.919 49.987 49.986 184.312-184.312c5.857-5.858 5.857-15.355-.001-21.213z" fill="#000154" data-original="#000000" style="" class=""/><path d="m437.02 74.98c-48.352-48.351-112.64-74.98-181.02-74.98s-132.668 26.629-181.02 74.98c-48.351 48.352-74.98 112.64-74.98 181.02 0 52.252 15.565 102.104 44.475 144.293l8.012-45.783c-14.708-30.322-22.487-63.816-22.487-98.51 0-124.617 101.383-226 226-226s226 101.383 226 226-101.383 226-226 226c-8.284 0-15 6.716-15 15s6.716 15 15 15c68.38 0 132.668-26.629 181.02-74.98 48.351-48.352 74.98-112.64 74.98-181.02s-26.629-132.668-74.98-181.02z" fill="#000154" data-original="#000000" style="" class=""/></g></g></svg>
