<?xml version="1.0" encoding="utf-8"?>
<svg viewBox="0 0 195 157" xmlns="http://www.w3.org/2000/svg">
  <defs>
    <rect x="63.5" y="105.83333" width="13.229167" height="13.229167" id="rect4888"/>
    <rect x="63.5" y="105.83333" width="13.229167" height="13.229167" id="rect4888-0"/>
    <rect x="63.5" y="105.83333" width="13.229167" height="13.229167" id="rect4901"/>
    <rect x="63.5" y="105.83333" width="13.229167" height="13.229167" id="rect4888-1"/>
    <rect x="63.5" y="105.83333" width="13.229167" height="13.229167" id="rect4937"/>
  </defs>
  <g id="layer1" transform="matrix(4.962264, 0, 0, 4.962264, -322.978241, -441.155609)" style="">
    <path style="fill:#1f275d;stroke:#000000;stroke-width:0;stroke-linecap:butt;stroke-linejoin:miter;stroke-opacity:1;fill-opacity:1;opacity:1;stroke-miterlimit:4;stroke-dasharray:none" d="m 84.666666,89.958332 -3.96875,3.96875 v 2.645833 l 3.96875,-3.968749 3.96875,3.968749 v -2.645833 z" id="path18"/>
    <path style="fill:#1f275d;stroke:#000000;stroke-width:0;stroke-linecap:butt;stroke-linejoin:miter;stroke-opacity:1;fill-opacity:1;opacity:1;stroke-miterlimit:4;stroke-dasharray:none" d="m 84.666667,93.927083 -3.96875,3.96875 v 2.645837 l 3.96875,-3.968753 3.96875,3.968753 v -2.645837 z" id="path18-5"/>
    <path style="fill:#1f275d;stroke:#000000;stroke-width:0;stroke-linecap:butt;stroke-linejoin:miter;stroke-opacity:1;fill-opacity:1;opacity:1;stroke-miterlimit:4;stroke-dasharray:none" d="m 84.666667,97.895833 -3.307291,3.175007 v 2.11666 l 3.307291,-3.175 3.307292,3.175 v -2.11666 z" id="path18-9"/>
    <path style="fill:#1f275d;stroke:#000000;stroke-width:0;stroke-linecap:butt;stroke-linejoin:miter;stroke-opacity:1;fill-opacity:1;opacity:1;stroke-miterlimit:4;stroke-dasharray:none" d="m 84.666666,101.86458 -2.645834,2.64584 h 5.291667 z" id="path51"/>
    <path style="fill:#1f275d;stroke:#000000;stroke-width:0;stroke-linecap:butt;stroke-linejoin:miter;stroke-opacity:1;fill-opacity:1;opacity:1;stroke-miterlimit:4;stroke-dasharray:none" d="m 70.114583,101.86458 2.645834,-2.645834 h 2.64583 l 7.9375,7.937504 1.32292,-1.32292 1.32292,1.32292 7.9375,-7.937504 h 2.64583 l 2.64583,2.645834 v 2.64584 l -3.96875,-3.96875 -10.58333,10.58333 -10.58333,-10.58333 -3.968754,3.96875 z" id="path190"/>
    <path style="fill:#1f275d;stroke:#000000;stroke-width:0;stroke-linecap:butt;stroke-linejoin:miter;stroke-opacity:1;fill-opacity:1;opacity:1;stroke-miterlimit:4;stroke-dasharray:none" d="m 71.4375,104.51042 2.645833,-2.64583 1.322917,1.32292 v 2.64583 l -1.322917,-1.32292 -1.322916,1.32292 z" id="path192"/>
    <path style="fill:#1f275d;stroke:#000000;stroke-width:0;stroke-linecap:butt;stroke-linejoin:miter;stroke-opacity:1;fill-opacity:1;opacity:1;stroke-miterlimit:4;stroke-dasharray:none" d="m 97.895837,104.51041 -2.64583,-2.64583 -1.32292,1.32292 v 2.64583 l 1.32292,-1.32292 1.32291,1.32292 z" id="path192-9"/>
    <path style="fill:#1f275d;stroke:#000000;stroke-width:0;stroke-linecap:butt;stroke-linejoin:miter;stroke-opacity:1;fill-opacity:1;opacity:1;stroke-miterlimit:4;stroke-dasharray:none" d="m 84.666667,111.125 -3.96875,3.96875 v 2.64583 l 3.96875,-3.96875 3.96875,3.96875 v -2.64583 z" id="path18-5-3"/>
    <path style="fill:#1f275d;stroke:#000000;stroke-width:0;stroke-linecap:butt;stroke-linejoin:miter;stroke-opacity:1;fill-opacity:1;opacity:1;stroke-miterlimit:4;stroke-dasharray:none" d="m 84.666667,115.09375 -2.645834,2.64583 h 1.322917 l 1.322917,1.32292 1.322916,-1.32292 H 87.3125 Z" id="path346"/>
    <path style="fill:#1f275d;stroke:#000000;stroke-width:0;stroke-linecap:butt;stroke-linejoin:miter;stroke-opacity:1;fill-opacity:1;opacity:1;stroke-miterlimit:4;stroke-dasharray:none" d="m 87.312503,108.47916 h 2.64583 l -1.32291,1.32292 2.64583,2.64583 1.32292,-1.32291 v 2.64583 h -1.32292 -1.32292 l -2.64583,-2.64583 z" id="path348"/>
    <path style="fill:#1f275d;stroke:#000000;stroke-width:0;stroke-linecap:butt;stroke-linejoin:miter;stroke-opacity:1;fill-opacity:1;opacity:1;stroke-miterlimit:4;stroke-dasharray:none" d="m 82.020833,108.47916 h -2.64584 l 1.32292,1.32292 -2.64583,2.64583 -1.32292,-1.32291 v 2.64583 h 1.32292 1.32291 l 2.64584,-2.64583 z" id="path348-7"/>
    <path style="fill:#1f275d;stroke:none;stroke-width:0.35714301;fill-opacity:1;opacity:1;stroke-miterlimit:4;stroke-dasharray:none;stroke-linejoin:miter" d="m 299.93591,398.78986 -19.92701,-19.88358 -7.11905,7.11238 -7.11905,7.11237 v -3.93019 -3.93018 l 4.73693,-4.72718 4.73694,-4.72718 h 4.81508 4.81508 l 15.08683,15.08369 15.08682,15.0837 2.50402,-2.48483 2.50402,-2.48483 2.50402,2.48483 2.50401,2.48483 15.08683,-15.0837 15.08682,-15.08369 h 4.82484 4.82483 l 4.73999,4.74976 4.73999,4.74977 -0.10209,3.80185 -0.1021,3.80185 -7.09184,-6.9943 -7.09184,-6.9943 -19.87363,19.87126 c -10.9305,10.92919 -19.95684,19.87125 -20.05853,19.87125 -0.1017,0 -9.15206,-8.94761 -20.11191,-19.88358 z" id="path500" transform="scale(0.26458333)"/>
    <path style="fill:#1f275d;stroke:none;stroke-width:0.35714301;fill-opacity:1;opacity:1;stroke-miterlimit:4;stroke-dasharray:none;stroke-linejoin:miter" d="m 315.86199,390.1932 4.19453,-4.19453 4.19453,4.19453 4.19453,4.19453 h -8.38906 -8.38906 z" id="path502" transform="scale(0.26458333)"/>
    <path style="fill:#1f275d;stroke:none;stroke-width:0.35714301;fill-opacity:1;opacity:1;stroke-miterlimit:4;stroke-dasharray:none;stroke-linejoin:miter" d="m 307.91366,385.66521 v -3.17404 l 5.76487,-5.56958 c 3.17069,-3.06327 5.9643,-5.6179 6.20803,-5.67697 0.24373,-0.0591 3.04461,2.43201 6.22418,5.53572 l 5.78103,5.6431 -0.11406,2.9334 -0.11405,2.9334 -5.8283,-5.57714 -5.82831,-5.57714 -2.38598,2.2843 c -1.31229,1.25637 -4.0333,3.88961 -6.04669,5.85165 l -3.66072,3.56734 z" id="path504" transform="scale(0.26458333)"/>
    <path style="fill:#1f275d;stroke:none;stroke-width:0.35714301;fill-opacity:1;opacity:1;stroke-miterlimit:4;stroke-dasharray:none;stroke-linejoin:miter" d="m 305.7708,374.20246 v -3.92857 l 7.14398,-7.13729 7.14399,-7.13728 7.15458,7.15458 7.15458,7.15458 -0.10214,3.80553 -0.10213,3.80552 -7.09077,-6.99324 -7.09077,-6.99325 -7.10566,7.099 -7.10566,7.09899 z" id="path506" transform="scale(0.26458333)"/>
    <path style="fill:#1f275d;stroke:none;stroke-width:0.35714301;fill-opacity:1;opacity:1;stroke-miterlimit:4;stroke-dasharray:none;stroke-linejoin:miter" d="m 305.7708,359.20246 v -3.92857 l 7.14398,-7.13729 7.14399,-7.13728 7.15458,7.15458 7.15458,7.15458 -0.10214,3.80553 -0.10213,3.80552 -7.09077,-6.99324 -7.09077,-6.99325 -7.10566,7.099 -7.10566,7.09899 z" id="path508" transform="scale(0.26458333)"/>
    <path style="fill:#1f275d;stroke:none;stroke-width:0.35714301;fill-opacity:1;opacity:1;stroke-miterlimit:4;stroke-dasharray:none;stroke-linejoin:miter" d="m 290.7708,425.55962 v -3.82811 l 2.14624,2.12384 2.14623,2.12384 5.35377,-5.34484 c 2.94457,-2.93966 5.35376,-5.477 5.35376,-5.63854 0,-0.16153 -0.82688,-1.16801 -1.83752,-2.23661 l -1.83752,-1.9429 h 3.62324 3.62323 v 4.37978 4.37979 l -4.91533,4.90593 -4.91534,4.90593 h -4.37038 -4.37038 z" id="path510" transform="scale(0.26458333)"/>
    <path style="fill:#1f275d;stroke:none;stroke-width:0.35714301;fill-opacity:1;opacity:1;stroke-miterlimit:4;stroke-dasharray:none;stroke-linejoin:miter" d="m 272.95875,396.93367 -1.9192,-1.91833 4.50375,-4.50375 4.50374,-4.50374 2.1476,2.12519 2.14759,2.12518 v 3.88444 3.88444 l -2.23214,-1.97992 -2.23214,-1.97992 -2.5,2.39238 -2.5,2.39237 z" id="path512" transform="scale(0.26458333)"/>
    <path style="fill:#1f275d;stroke:none;stroke-width:0.35714301;fill-opacity:1;opacity:1;stroke-miterlimit:4;stroke-dasharray:none;stroke-linejoin:miter" d="m 362.38958,396.44003 -2.48836,-2.41198 -2.06521,2.04366 -2.06521,2.04366 v -3.92857 -3.92858 l 2.1476,-2.12518 2.1476,-2.12519 4.46428,4.46428 4.46429,4.46429 -2.05831,1.9578 -2.05831,1.95779 z" id="path514" transform="scale(0.26458333)"/>
    <path style="fill:#1f275d;stroke:none;stroke-width:0.35714301;fill-opacity:1;opacity:1;stroke-miterlimit:4;stroke-dasharray:none;stroke-linejoin:miter" d="m 335.67842,424.56729 -4.90762,-4.82044 v -4.46528 -4.46527 h 3.64954 3.64953 l -2.03939,2.06089 -2.03938,2.06089 5.52926,5.52063 5.52926,5.52063 2.14631,-2.12391 2.1463,-2.12392 v 3.82811 3.82811 h -4.3781 -4.3781 z" id="path516" transform="scale(0.26458333)"/>
    <path style="fill:#1f275d;stroke:none;stroke-width:0.35714301;fill-opacity:1;opacity:1;stroke-miterlimit:4;stroke-dasharray:none;stroke-linejoin:miter" d="m 305.7708,439.20246 v -3.92857 l 7.14398,-7.13729 7.14399,-7.13728 7.15458,7.15458 7.15458,7.15458 -0.10214,3.80553 -0.10213,3.80552 -7.09077,-6.99324 -7.09077,-6.99325 -7.10566,7.099 -7.10566,7.09899 z" id="path518" transform="scale(0.26458333)"/>
    <path style="fill:#1f275d;stroke:none;stroke-width:0.35714301;fill-opacity:1;opacity:1;stroke-miterlimit:4;stroke-dasharray:none;stroke-linejoin:miter" d="m 317.56417,446.51373 c -2.18373,-2.00651 -2.41448,-2.126 -4.10525,-2.126 h -1.79146 l 4.19453,-4.19453 4.19453,-4.19453 4.19453,4.19453 4.19453,4.19453 h -1.97357 c -1.93843,0 -2.01132,0.0382 -4.09406,2.14285 -1.16628,1.17857 -2.20589,2.13528 -2.31025,2.12601 -0.10437,-0.009 -1.23095,-0.97355 -2.50353,-2.14286 z" id="path520" transform="scale(0.26458333)"/>
    <path id="path522" style="mix-blend-mode:normal;fill:#1f275d;fill-opacity:1;stroke:#1f275d;stroke-width:0.35714301;stroke-opacity:1;opacity:1;stroke-miterlimit:4;stroke-dasharray:none;stroke-linejoin:miter" d="m 275.60156,375.81641 -4.91601,4.90625 -4.91407,4.90625 v 3.57226 3.57227 l 7.14454,-7.13672 7.14257,-7.13867 19.91016,19.91015 c 10.94986,10.94986 19.98814,19.90821 20.08594,19.90821 0.0978,0 9.11014,-8.93176 20.02734,-19.84766 l 19.84961,-19.8457 6.99024,6.8125 6.99218,6.81445 0.15235,-3.30664 0.15234,-3.30469 -4.84375,-4.91211 -4.84375,-4.91015 h -4.46875 -4.4668 l -15.26562,15.26171 -15.26563,15.26368 -2.5039,-2.48633 -2.50391,-2.48438 -2.50391,2.48438 -2.5039,2.48633 -15.26563,-15.26368 -15.26562,-15.26171 h -4.45703 z" transform="scale(0.26458333)"/>
    <g aria-label="G" transform="matrix(1,0,0,1.1109233,2.4568452,-13.719117)" id="text4886" style="font-style:normal;font-weight:normal;font-size:10.5833px;line-height:1.25;font-family:sans-serif;white-space:pre;shape-inside:url(#rect4888);fill:#1f275d;fill-opacity:1;stroke:none">
      <path d="m 69.948531,114.38208 h -1.625396 q -0.149517,0 -0.226688,0.0675 -0.07235,0.0675 -0.120578,0.24116 h -0.15434 V 113.157 h 0.15434 q 0.04823,0.17846 0.120578,0.24598 0.07717,0.0627 0.226688,0.0627 h 3.125391 v 0.15435 q -0.173633,0.0482 -0.24598,0.1254 -0.06752,0.0772 -0.06752,0.22668 v 1.35048 q 0,0.14952 0.06752,0.22669 0.06752,0.0772 0.24598,0.1254 v 0.12058 q -1.876199,1.07073 -3.636644,1.07073 -1.596457,0 -2.604492,-0.75723 -1.268485,-0.95498 -1.268485,-2.65272 0,-1.58199 1.128614,-2.51768 1.070736,-0.88745 2.845649,-0.88745 0.564307,0 1.06109,0.1061 0.501606,0.10129 1.13826,0.34727 0.327973,0.13022 0.467844,0.13022 0.101286,0 0.236333,-0.11093 l 0.135048,0.0724 -0.771701,1.57716 -0.139871,-0.0723 q -0.0048,-0.15917 -0.04341,-0.22669 -0.03859,-0.0724 -0.173633,-0.17363 -0.294212,-0.22187 -0.863341,-0.37621 -0.56913,-0.15916 -1.07556,-0.15916 -1.03215,0 -1.712212,0.57878 -0.766879,0.65594 -0.766879,1.7315 0,1.0418 0.747586,1.68328 0.684885,0.58842 1.803853,0.58842 0.545014,0 1.075559,-0.1254 0.530544,-0.12541 0.916395,-0.34245 z" style="font-style:normal;font-variant:normal;font-weight:normal;font-stretch:normal;font-size:9.87778px;font-family:'Copperplate Gothic Bold';-inkscape-font-specification:'Copperplate Gothic Bold, ';fill:#1f275d;fill-opacity:1" id="path4964"/>
    </g>
    <g aria-label="P" transform="matrix(1.1485602,0,0,1.1714357,21.854831,-20.183152)" id="text4886-9" style="font-style:normal;font-weight:normal;font-size:8.03286px;line-height:1.25;font-family:sans-serif;white-space:pre;shape-inside:url(#rect4888-1);fill:#1f275d;fill-opacity:1;stroke:none">
      <path d="m 65.719365,113.65581 v 2.05921 q 0,0.13728 0.06406,0.21507 0.06864,0.0732 0.228801,0.1144 v 0.14643 h -1.949381 v -0.14643 q 0.164737,-0.0458 0.228801,-0.11898 0.06406,-0.0732 0.06406,-0.21049 v -5.28987 q 0,-0.14186 -0.06406,-0.21508 -0.06406,-0.0732 -0.228801,-0.11897 v -0.14643 h 3.898761 q 0.681826,0 1.079939,0.0915 0.402689,0.0915 0.709282,0.31574 0.315744,0.23338 0.494209,0.61319 0.178464,0.39353 0.178464,0.83283 0,0.63149 -0.338625,1.1074 -0.292864,0.40726 -0.777922,0.58115 -0.480481,0.16931 -1.345347,0.16931 z m 0,-1.0296 h 2.082085 q 0.622337,0 0.874018,-0.13271 0.16016,-0.0869 0.256257,-0.27456 0.100672,-0.19219 0.100672,-0.42099 0,-0.22422 -0.100672,-0.41184 -0.0961,-0.19219 -0.256257,-0.27914 -0.247105,-0.1327 -0.874018,-0.1327 h -2.082085 z" style="font-style:normal;font-variant:normal;font-weight:normal;font-stretch:normal;font-size:9.37167px;font-family:'Copperplate Gothic Bold';-inkscape-font-specification:'Copperplate Gothic Bold, ';fill:#1f275d;fill-opacity:1" id="path4967"/>
    </g>
  </g>
</svg>